<mxfile host="65bd71144e">
    <diagram id="Syq83wW6WXHnsOk0hJn6" name="Page-1">
        <mxGraphModel dx="1213" dy="1001" grid="1" gridSize="10" guides="1" tooltips="1" connect="1" arrows="1" fold="1" page="1" pageScale="1" pageWidth="850" pageHeight="1100" background="#ffffff" math="0" shadow="0">
            <root>
                <mxCell id="0"/>
                <mxCell id="1" parent="0"/>
                <mxCell id="33" value="" style="rounded=1;whiteSpace=wrap;html=1;fillColor=#dae8fc;strokeColor=#6c8ebf;fontColor=#000000;" vertex="1" parent="1">
                    <mxGeometry x="380" y="60" width="100" height="150" as="geometry"/>
                </mxCell>
                <mxCell id="32" value="" style="rounded=1;whiteSpace=wrap;html=1;fillColor=#dae8fc;strokeColor=#6c8ebf;fontColor=#000000;" vertex="1" parent="1">
                    <mxGeometry x="390" y="75" width="100" height="150" as="geometry"/>
                </mxCell>
                <mxCell id="2" value="" style="rounded=1;whiteSpace=wrap;html=1;fillColor=#dae8fc;strokeColor=#6c8ebf;fontColor=#000000;" vertex="1" parent="1">
                    <mxGeometry x="400" y="85" width="100" height="150" as="geometry"/>
                </mxCell>
                <mxCell id="3" value="TPU core 1" style="rounded=1;whiteSpace=wrap;html=1;fillColor=#ffe6cc;strokeColor=#d79b00;fontColor=#000000;" vertex="1" parent="1">
                    <mxGeometry x="410" y="115" width="80" height="40" as="geometry"/>
                </mxCell>
                <mxCell id="4" value="TPU core 8" style="rounded=1;whiteSpace=wrap;html=1;fillColor=#ffe6cc;strokeColor=#d79b00;fontColor=#000000;" vertex="1" parent="1">
                    <mxGeometry x="410" y="185" width="80" height="40" as="geometry"/>
                </mxCell>
                <mxCell id="6" value="..." style="text;html=1;strokeColor=none;fillColor=none;align=center;verticalAlign=middle;whiteSpace=wrap;rounded=0;fontColor=#000000;" vertex="1" parent="1">
                    <mxGeometry x="420" y="155" width="60" height="30" as="geometry"/>
                </mxCell>
                <mxCell id="14" value="Worker Node" style="text;html=1;strokeColor=none;fillColor=none;align=center;verticalAlign=middle;whiteSpace=wrap;rounded=0;fontColor=#000000;fontStyle=1" vertex="1" parent="1">
                    <mxGeometry x="400" y="85" width="100" height="30" as="geometry"/>
                </mxCell>
                <mxCell id="24" value="" style="rounded=1;whiteSpace=wrap;html=1;fillColor=#dae8fc;strokeColor=#6c8ebf;fontColor=#000000;" vertex="1" parent="1">
                    <mxGeometry x="140" y="115" width="170" height="50" as="geometry"/>
                </mxCell>
                <mxCell id="30" value="Head Node" style="text;html=1;strokeColor=none;fillColor=none;align=center;verticalAlign=middle;whiteSpace=wrap;rounded=0;fontColor=#000000;fontStyle=1" vertex="1" parent="1">
                    <mxGeometry x="175" y="125" width="100" height="30" as="geometry"/>
                </mxCell>
                <mxCell id="35" value="" style="endArrow=classic;html=1;fontColor=#000000;strokeColor=#000000;entryX=-0.01;entryY=0.46;entryDx=0;entryDy=0;entryPerimeter=0;" edge="1" parent="1" target="32">
                    <mxGeometry width="50" height="50" relative="1" as="geometry">
                        <mxPoint x="310" y="145" as="sourcePoint"/>
                        <mxPoint x="390" y="155" as="targetPoint"/>
                    </mxGeometry>
                </mxCell>
                <mxCell id="36" value="" style="endArrow=classic;html=1;fontColor=#000000;strokeColor=#000000;entryX=0;entryY=0.5;entryDx=0;entryDy=0;exitX=1;exitY=0.75;exitDx=0;exitDy=0;" edge="1" parent="1" source="24" target="2">
                    <mxGeometry width="50" height="50" relative="1" as="geometry">
                        <mxPoint x="160" y="290" as="sourcePoint"/>
                        <mxPoint x="399" y="154" as="targetPoint"/>
                    </mxGeometry>
                </mxCell>
                <mxCell id="37" value="" style="endArrow=classic;html=1;fontColor=#000000;strokeColor=#000000;entryX=0;entryY=0.5;entryDx=0;entryDy=0;exitX=1;exitY=0.5;exitDx=0;exitDy=0;" edge="1" parent="1" source="24" target="33">
                    <mxGeometry width="50" height="50" relative="1" as="geometry">
                        <mxPoint x="330" y="165" as="sourcePoint"/>
                        <mxPoint x="409" y="164" as="targetPoint"/>
                    </mxGeometry>
                </mxCell>
                <mxCell id="38" value="Ray Process" style="rounded=1;whiteSpace=wrap;html=1;fillColor=#dae8fc;strokeColor=#6c8ebf;fontColor=#000000;" vertex="1" parent="1">
                    <mxGeometry x="600" y="92.5" width="120" height="35" as="geometry"/>
                </mxCell>
                <mxCell id="40" value="torch.multiprocessing Process" style="rounded=1;whiteSpace=wrap;html=1;fillColor=#ffe6cc;strokeColor=#d79b00;fontColor=#000000;" vertex="1" parent="1">
                    <mxGeometry x="600" y="147.5" width="120" height="40" as="geometry"/>
                </mxCell>
                <mxCell id="42" value="" style="rounded=0;whiteSpace=wrap;html=1;shadow=0;glass=0;sketch=0;fontColor=#000000;strokeColor=#000000;strokeWidth=2;fillColor=none;" vertex="1" parent="1">
                    <mxGeometry x="590" y="70" width="140" height="150" as="geometry"/>
                </mxCell>
            </root>
        </mxGraphModel>
    </diagram>
</mxfile>